<?xml version="1.0" standalone="no"?>
<!DOCTYPE svg PUBLIC "-//W3C//DTD SVG 20010904//EN"
 "http://www.w3.org/TR/2001/REC-SVG-20010904/DTD/svg10.dtd">
<svg version="1.0" xmlns="http://www.w3.org/2000/svg"
 width="1350.000000pt" height="1350.000000pt" viewBox="0 0 1350.000000 1350.000000"
 preserveAspectRatio="xMidYMid meet">
<metadata>
Created by potrace 1.11, written by Peter Selinger 2001-2013
</metadata>
<g transform="translate(0.000000,1350.000000) scale(0.100000,-0.100000)"
fill="#000000" stroke="none">
<path d="M6117 13254 c-1 -1 -74 -5 -162 -9 -88 -3 -198 -8 -245 -10 -47 -2
-150 -7 -230 -10 -80 -3 -181 -8 -225 -10 -44 -3 -136 -7 -205 -10 -69 -3
-174 -8 -235 -10 -60 -3 -162 -7 -225 -10 -63 -2 -167 -7 -230 -10 -229 -11
-328 -15 -470 -20 -80 -3 -176 -8 -215 -10 -38 -2 -146 -7 -240 -11 -250 -10
-230 -7 -229 -35 1 -42 25 -231 49 -379 2 -14 7 -47 10 -75 3 -27 8 -61 10
-75 6 -32 11 -65 25 -165 6 -44 13 -91 15 -105 3 -14 7 -50 11 -80 3 -30 8
-64 10 -75 2 -11 6 -40 9 -65 3 -25 8 -56 10 -70 3 -14 7 -41 10 -60 6 -48 26
-189 30 -220 2 -14 7 -45 10 -70 3 -25 15 -106 26 -180 21 -144 24 -166 35
-245 3 -27 8 -58 10 -69 2 -10 6 -44 10 -75 3 -31 8 -58 9 -61 2 -3 6 -37 10
-75 4 -39 9 -72 10 -75 2 -3 6 -30 10 -60 3 -30 8 -62 10 -70 2 -8 7 -40 10
-70 3 -30 8 -67 11 -82 2 -16 6 -40 8 -55 3 -16 7 -46 11 -68 3 -22 8 -58 10
-80 5 -45 7 -55 29 -205 8 -58 18 -123 21 -145 5 -43 16 -121 20 -145 2 -8 6
-40 10 -70 9 -72 15 -112 20 -130 2 -8 6 -42 10 -75 3 -33 8 -67 10 -75 2 -8
6 -37 10 -65 3 -27 10 -77 15 -110 5 -33 11 -80 14 -105 3 -25 8 -54 10 -66 4
-18 13 -84 21 -144 5 -37 17 -127 20 -150 7 -39 25 -170 31 -215 3 -22 7 -51
10 -65 2 -14 8 -61 14 -105 6 -44 13 -91 15 -105 2 -14 9 -61 15 -105 6 -44
13 -93 16 -110 10 -63 14 -91 19 -135 3 -25 7 -54 9 -65 4 -20 14 -92 22 -155
6 -45 16 -110 19 -131 2 -9 6 -40 10 -70 5 -48 18 -134 30 -209 2 -14 9 -63
15 -110 12 -93 18 -132 25 -170 3 -14 7 -50 10 -80 3 -30 8 -62 10 -70 2 -8 7
-37 10 -65 3 -27 7 -57 10 -65 2 -8 6 -42 10 -75 3 -33 8 -67 10 -75 2 -8 6
-37 10 -65 3 -27 8 -59 10 -70 2 -11 7 -42 10 -70 7 -61 14 -111 20 -150 8
-50 15 -98 19 -135 5 -35 7 -55 27 -185 17 -113 33 -228 44 -320 3 -22 7 -51
10 -65 2 -14 7 -47 11 -75 3 -27 8 -59 10 -69 2 -11 8 -56 14 -100 6 -45 13
-92 15 -106 2 -14 7 -45 10 -70 3 -25 8 -52 10 -60 2 -8 6 -40 10 -70 3 -30 9
-77 13 -105 l7 -50 78 1 c64 1 77 -2 78 -15 0 -9 2 -25 4 -36 2 -11 7 -40 10
-65 17 -133 27 -208 30 -230 2 -14 6 -45 10 -70 3 -25 8 -56 10 -70 2 -14 7
-47 10 -75 3 -27 12 -95 20 -150 7 -55 17 -124 20 -154 4 -30 8 -61 10 -70 1
-9 6 -41 10 -71 7 -58 10 -81 19 -145 9 -65 18 -128 22 -160 2 -16 8 -61 13
-100 6 -38 13 -94 16 -124 3 -29 7 -56 9 -60 2 -3 6 -33 10 -66 3 -33 8 -69
10 -80 5 -27 14 -99 21 -160 3 -27 8 -63 11 -78 5 -23 -4 -40 -49 -95 -153
-190 -231 -376 -220 -526 2 -32 18 -100 35 -150 30 -91 124 -322 139 -341 4
-5 10 -71 13 -145 4 -74 8 -157 11 -185 2 -27 7 -106 11 -175 3 -69 8 -143 9
-165 2 -22 6 -96 9 -165 4 -69 9 -143 11 -165 3 -22 7 -86 10 -141 3 -56 7
-117 9 -135 3 -19 8 -72 12 -119 3 -47 8 -94 9 -105 2 -11 4 -25 4 -31 2 -27
166 -78 296 -92 95 -10 293 -6 374 8 173 29 332 109 341 170 1 8 3 300 5 648
1 349 7 637 11 641 19 16 268 82 364 96 24 4 47 8 50 10 3 2 32 6 64 9 32 4
62 8 65 10 3 2 46 7 95 11 50 4 99 9 110 11 29 5 359 5 476 -1 458 -23 1555
-23 1701 -1 13 3 60 7 105 11 99 8 149 13 194 21 19 3 49 8 65 10 34 4 82 13
107 20 13 4 27 -15 58 -77 61 -121 135 -225 214 -304 307 -303 631 -133 760
397 29 119 32 142 51 313 7 61 7 331 0 400 -3 28 -7 75 -10 105 -36 359 -157
731 -320 980 -59 90 -173 207 -240 246 -140 81 -290 71 -405 -29 -120 -104
-222 -319 -264 -562 -5 -30 -12 -37 -102 -109 -59 -46 -252 -174 -315 -209
-25 -13 -54 -30 -65 -36 -146 -82 -448 -174 -654 -198 -127 -15 -539 -8 -640
11 -8 1 -37 6 -65 10 -83 13 -245 54 -335 84 -88 30 -120 44 -280 119 -229
108 -401 163 -655 208 -108 19 -182 31 -213 34 -13 1 -13 53 3 991 9 527 14
743 18 746 1 1 28 5 60 7 31 2 59 6 62 9 3 3 7 59 10 124 2 65 7 175 10 244 3
69 8 188 11 265 2 77 7 187 9 245 6 145 15 374 20 500 6 181 16 411 20 515 3
55 7 161 10 235 3 74 7 185 10 245 3 61 8 182 11 270 12 327 21 577 29 740 2
50 7 164 10 255 3 91 8 210 10 265 2 55 7 161 10 235 3 74 7 194 10 265 3 72
7 189 10 260 6 131 9 192 20 500 3 94 8 202 10 240 2 39 7 151 10 250 4 99 8
221 10 270 2 50 7 160 10 245 7 196 13 330 20 495 3 72 8 182 10 245 2 63 7
171 10 240 2 69 7 195 10 280 3 85 7 196 10 245 2 50 7 162 10 250 4 88 8 184
9 213 2 28 0 52 -3 53 -14 3 -82 5 -84 3z"/>
</g>
</svg>
