<svg version="1.1" id="Layer_1" xmlns="http://www.w3.org/2000/svg" xmlns:xlink="http://www.w3.org/1999/xlink" x="0px" y="0px"
	 viewBox="0 0 170.5 312.3" style="enable-background:new 0 0 170.5 312.3;" xml:space="preserve">
<style type="text/css">
	.st0{stroke:#000000;stroke-miterlimit:10;}
</style>
<polygon class="st0" points="59.7,255.2 60.9,181.7 30.1,185.4 39.6,255.2 "/>
<polygon class="st0" points="63.9,196.3 28.2,198.6 0.6,3.7 71.6,0.5 "/>
<ellipse transform="matrix(0.9925 -0.1219 0.1219 0.9925 -29.6647 20.7886)" class="st0" cx="155.1" cy="252.9" rx="14.5" ry="31.4"/>
<path class="st0" d="M153.2,231.3c-6.7-3.1-15,15.2-37.7,18.9c-10,1.6-19.3-0.2-21.4-0.6c-11.7-2.4-13.4-6.4-25.2-8.8
	c-8.2-1.7-18.1-3.7-25.2,1.9c-7.4,5.8-11.9,12.8-11.9,18.2c0,3.3,4.4,12.6,4.4,12.6s1.9,36.2,2.5,36.5c5.1,2.6,17.9,3,22.9-1.6
	c0.8-0.7,0.3-31.8,0.3-31.8s11.3-4.4,27-3.8c52.6,2.1,58.7-1.7,61.6-4.4C162,258,160,234.4,153.2,231.3z"/>
</svg>
